<svg xmlns="http://www.w3.org/2000/svg" width="1000" height="1000"><g fill-rule="evenodd" clip-rule="evenodd" fill="#FFF"><path d="M986.302 131.571C973.5 72.228 935.985 33.641 877.894 16.185c-13.323-4.003-27.844-5.512-41.822-5.567-42.438-.167-85.216-2.22-127.253 2.224-81.771 8.646-141.127 91.333-127.209 172.492.795 4.642 1.808 9.245 2.887 14.709h-17.041c-146.885 0-293.768-.005-440.652.003-32.301.002-53.288 20.811-53.301 52.849-.023 57.633-.021 115.268-.029 172.9-.002 3.507-.002 7.012-.002 11.703h-31.59v11.996c-.002 46.767-.114 93.531.137 140.296.031 5.953-1.654 9.23-6.874 12.441-16.613 10.219-25.116 25.127-24.994 45.15.304 49.727.243 99.459.046 149.189-.077 19.656 8.672 34.17 24.927 44.158 5.212 3.205 6.921 6.447 6.878 12.43-.287 40.508-.154 81.016-.156 121.523v14.766h157.646V978.25c.007-41.826.092-83.652-.074-125.477-.021-5.398 1.186-8.662 6.303-11.732 17.078-10.244 26.103-25.426 25.42-45.855-.291-8.719-.049-17.455-.049-25.684h47.887c0 56.812-.053 112.787.021 168.762.041 30.23 21.434 51.705 51.52 51.711 181.794.033 363.588.035 545.383-.002 28.908-.008 50.658-21.676 50.763-50.422.085-24.041.077-48.084.006-72.125-.125-42.215-35.611-72.203-77.728-65.623v124.76c7.094 0 13.503.887 19.553-.209 8.907-1.617 17.559-4.646 26.957-7.248 0 8.811.278 17.658-.085 26.48-.315 7.584-4.663 12.863-12.271 12.965-28.245.377-56.496.15-84.82.15.698-6.943 1.799-13.09 1.851-19.244.207-24.369.169-48.742.067-73.111-.176-41.262-36.925-71.719-78.031-64.387v123.967c8.332 0 16.263.9 23.885-.254 7.574-1.146 14.838-4.359 23.041-6.916 0 7.744.057 14.955-.014 22.164-.134 13.562-4.251 17.912-17.577 17.916-141.286.045-282.57.043-423.855.004-13.27-.004-17.414-4.295-17.439-18.016-.082-45.119-.053-90.24-.064-135.357-.004-11.807 0-23.613 0-36.791h9.143c184.428 0 368.854-.018 553.282.016 33.329.006 54.155-20.789 54.148-54.076-.043-140.957.016-281.911-.131-422.866-.009-7.04 1.802-11.691 7.483-16.665 43.573-38.154 64.717-85.654 52.235-143.514zM879.77 892.111v-56.457c11.374 5.867 15.269 14.945 15.697 25.891.482 12.357-2.654 23.115-15.697 30.566zm-126.148-.953v-54.916c20.63 7.686 20.188 47.955 0 54.916zm-649-465.138c0-58.225-.015-116.45.007-174.676.005-16.526 3.678-20.165 20.326-20.167 13.483 0 26.969.1 40.451.196.589.005 1.173.425 2.59.971V436.49h-63.374v-10.47zm-30.913 43h93.951v125.892H73.709V469.02zM41.73 638.547c.152-7.59 5.547-11.975 13.136-12 43.732-.154 87.466-.174 131.198.008 8.49.035 13.667 4.912 13.756 13.566.23 22.65.078 45.303.078 67.955-11.531-37.748-41.939-64.152-76.561-65.354-36.403-1.264-66.271 22.854-81.775 68.064 0-25.95-.294-49.102.168-72.239zm126.614 83.412c-.225 28.506-19.355 47.266-48.133 47.193-28.321-.066-47.324-19.441-47.2-48.121.124-28.33 19.519-47.348 48.147-47.211 28.381.139 47.41 19.551 47.186 48.139zm-.717 236.217H73.352V848.418h94.275v109.758zm32.295-158.041c-.156 11.699-4.559 16.352-16.053 16.391-42.113.135-84.229.121-126.345.004-10.415-.027-15.767-4.248-15.926-13.434-.39-22.66-.128-45.332-.128-68 12.627 39.506 43.785 65.406 79.719 65.182 35.4-.225 66.416-26.352 78.779-65.057v26.418c-.001 12.832.126 25.666-.046 38.496zm568.624-63.178H231.092v-10.723c0-26.014-.373-52.033.117-78.037.395-20.854-8.803-35.707-25.717-46.953-2.871-1.908-5.762-6.35-5.77-9.627-.291-118.211-.242-236.421-.22-354.633 0-1.577.25-3.152.475-5.82 54.79 0 108.446-.003 162.103.001 75.404.008 150.811.095 226.216-.096 6.507-.017 10.655 1.326 14.249 7.418 12.243 20.767 28.965 37.471 49.65 49.872 5.065 3.036 6.379 6.478 6.325 11.914-.228 22.709-.095 45.422-.095 70.137 3.959-2.363 6.89-3.949 9.653-5.786 23.847-15.844 47.973-31.297 71.335-47.828 9.202-6.512 18.329-7.476 29.132-5.942l.001 426.103zM895.56 504.631c-.012 71.139-.02 142.275-.04 213.416-.003 15.527-3.813 19.445-18.973 19.459-24.981.023-49.962.006-75.987.006V492.676c9.656 22.833 23.573 38.461 47.208 38.465 23.69.002 37.874-15.271 47.792-35.968 0 3.153.002 6.306 0 9.458zm-46.519-67.049c-24.231-.551-38.614 14.925-48.3 38.745V310.244c31.692-.165 63.481 2.433 94.146-11.42v176.995c-9.304-22.666-22.95-37.716-45.846-38.237zm14.883 46.884c-.04 10.959-5.28 16.054-16.378 15.926-10.801-.125-15.919-5.55-15.699-16.64.208-10.473 5.263-15.384 15.889-15.437 10.949-.053 16.226 5.213 16.188 16.151zm93.905-307.758c-10.064 63.229-55.962 102.319-120.235 102.373-29.29.025-58.587-.28-87.869.247-5.78.103-12.145 2.282-17.133 5.318-13.978 8.508-27.378 17.965-43.01 28.383 0-11.792-.318-21.303.108-30.781.299-6.627-1.471-10.306-8.139-13.418-48.582-22.672-72.255-61.197-70.951-114.811 1.476-60.784 51.152-111.084 111.864-112.322 41.122-.839 82.288-.854 123.41-.028 70.093 1.408 122.994 65.701 111.955 135.039z"/><path d="M484.338 263.275c-83.691-.31-157.748 73.107-157.906 156.543-.16 84.988 72.424 158.891 156.297 159.137 85.833.25 159.232-72.52 159.389-158.027.153-84.162-73.081-157.338-157.78-157.653zm47.601 251.589c0 1.646.008 3.292 0 4.938-.098 21.432-.081 21.527-20.962 25.545-22.708 4.369-45.144 3.236-67.312-3.578-5.123-1.578-7.424-4.031-7.188-9.761.482-11.834-.113-23.709.293-35.549.897-26.058 20.217-43.83 47.322-43.924 27.067-.096 46.487 17.55 47.743 43.565.301 6.241.045 12.508.045 18.764h.059zm-79.513-141.131c.044-19.964 12.064-31.916 32.078-31.896 19.361.02 31.511 12.049 31.632 31.32.128 20.446-12.078 32.584-32.573 32.391-19.217-.183-31.18-12.407-31.137-31.815zm110.165 147.031c4.332-41.729-10.398-72.388-47.209-92.593 19.84-14.976 33.397-33.231 31.597-58.843-1.184-16.827-9.271-30.757-21.781-41.898-26.381-23.492-61.285-21.873-85.719 3.747-27.833 29.185-23.869 59.13 13.082 97.277-36.044 19.649-51 50.524-46.719 91.553-35.55-19.284-56.387-79.947-45.197-128.173 12.9-55.609 59.678-95.197 114.965-97.301 62.822-2.39 111.709 30.815 129.874 88.214 15.651 49.446-3.107 112.223-42.893 138.017zM427.035 626.885c-19.419-.146-38.839-.09-58.258.018-22.627.123-42.611 18.926-42.312 39.65.293 20.41 20.064 38.678 42.141 38.863 9.545.08 19.089.014 28.636.014v.037c9.874 0 19.75.096 29.623-.021 21.706-.254 41.673-19.473 41.37-39.703-.301-20.085-19.901-38.698-41.2-38.858zm1.471 47.443a6285.17 6285.17 0 00-62.172.006c-5.471.027-8.719-1.646-8.816-7.809-.104-6.523 3.051-8.68 9.115-8.566 10.193.191 20.395.053 30.592.053 10.526.014 21.053.1 31.578-.02 5.806-.066 8.314 2.543 8.325 8.354.012 6.062-3.019 8.009-8.622 7.982zm172.036-47.412c-19.416-.16-38.835-.174-58.249-.002-22.094.191-41.75 18.641-41.93 39.062-.18 20.268 19.611 39.125 41.556 39.449 9.87.146 19.745.025 29.617.014 9.543-.01 19.089.064 28.632-.025 21.999-.207 41.797-18.697 41.931-39.08.132-20.309-19.693-39.24-41.557-39.418zm1.791 47.418a6231.46 6231.46 0 00-62.207-.035c-5.549.023-8.628-1.799-8.715-7.91-.095-6.627 3.229-8.547 9.221-8.43 10.199.197 20.405.055 30.608.055 10.204-.002 20.411.143 30.61-.057 6.007-.117 9.299 1.84 9.197 8.451-.094 6.1-3.16 7.957-8.714 7.926zm72.414-459.694h219.636v-29.873H674.747v29.873zm.241-78.937h219.724v-29.74H674.988v29.74z"/></g><g fill-rule="evenodd" clip-rule="evenodd" fill="#FFF"><path d="M-677.69 218.564c-.004-29.359-21.875-51.12-51.133-51.128h-11.684c-2.666-66.934-32.184-118.298-85.838-157.817h54.646v30.284h93.502V-53.45h-94.104v30.389h-316.723v-30.396h-93.414v93.128h94.027V9.728h53.863c-54.398 39.788-83.25 91.65-85.994 157.723h-13.85c-140.327-.011-280.654-.04-420.981-.024-34.385.003-54.8 20.277-54.875 54.373-.036 16.14.021 32.282.021 48.422.004 46.752.002 93.504.002 142.094-3.256-1.693-4.92-2.615-6.631-3.438-20.412-9.825-34.704-3.016-39.728 19.164-.933 4.114-1.038 8.481-1.04 12.732-.051 143.621-.057 287.243-.034 430.866.006 34.132 20.527 54.429 54.81 54.425 117.928-.008 235.856 0 353.784-.004 37.224 0 74.448.15 111.668-.113 13.043-.093 25.781-3.257 31.029-16.67 5.117-13.073-2.699-23.323-11.24-32.524-1.789-1.927-3.877-3.571-5.738-5.436-2.217-2.217-4.336-4.533-8.145-8.536h14.492c129.127 0 258.256.013 387.383-.01 30.342-.006 51.918-21.275 51.922-51.275.032-197.645.034-395.289.003-592.933zm-62.707-240.513h31.08V8.778h-31.08v-30.727zM-1120.7 8.92h-30.691v-31.018h30.691V8.92zm375.41 198.11c1.832-6.072 3.561-9.275 10.25-8.525 4.229.474 8.561-.058 12.818.247 8.041.576 13.135 4.933 13.215 13.091.26 26.922.098 53.848.098 81.446h-78.461c8.846-13.969 18.607-26.875 25.605-41.137 7.02-14.308 11.856-29.797 16.475-45.122zm-208.898-196.3C-875.147.201-806.489 40.76-780.983 113.743c24.205 69.269-.451 152.926-73.789 191.784-9.564 5.067-14.027 10.245-12.297 20.887.721 4.44.119 9.095.119 14.638h-47.432c-.178-3.469-.482-6.636-.484-9.803-.025-30.629.195-61.261-.121-91.886-.082-7.627 1.51-11.747 9.387-15.492 23.434-11.14 37.816-30.215 37.828-56.694.012-26.519-14.631-45.315-37.787-56.911-27.74-13.891-60.863-2.6-78.463 25.778-16.477 26.564-10.43 59.017 15.002 79.438 4.076 3.273 8.455 6.854 13.295 8.335 8.18 2.506 9.967 7.283 9.871 15.229-.402 33.572-.17 67.151-.17 101.544h-47.906c0-6.65-.412-13.754.129-20.785.445-5.808-1.863-8.664-6.895-11.233-46.244-23.612-75.262-60.537-85.115-111.848-16.91-88.071 40.098-173.803 131.623-185.994zm24.232 361.812c22.389.002 44.779.005 67.168 0 5.699-.001 11.537-.661 11.695 7.96.154 8.484-5.25 8.359-11.23 8.353-45.109-.054-90.215-.015-135.322-.004-5.975.002-12.371.971-12.162-8.394.209-9.5 6.98-7.859 12.686-7.881 22.386-.084 44.777-.034 67.165-.034zm-.75-173.474c-19.473-.081-31.469-12-31.574-31.367-.107-20.169 11.645-32.205 31.566-32.322 19.977-.119 32.115 11.899 32.123 31.806.008 19.831-12.214 31.965-32.115 31.883zm-68.423 220.893c45.781.058 91.559.069 137.342.039 5.621-.004 10.602.035 10.717 7.899.121 8.454-5.213 8.446-11.211 8.425-23.053-.082-46.111-.033-69.164-.033-22.396-.006-44.795-.06-67.189.029-6.014.025-11.326.012-11.201-8.43.118-7.832 5.059-7.936 10.706-7.929zm-579.923-203.902c.065-12.949 4.351-17.429 17.051-17.434 145.571-.055 291.142-.061 436.713.142 2.859.004 7.84 2.233 8.254 4.184 7.119 33.494 22.311 62.924 45.441 90.661h-507.494v-14.318c.003-21.079-.072-42.157.035-63.235zm431.901 678.846h-174.847c-93.534-.002-187.067.012-280.601-.016-21.831-.008-24.166-2.473-23.891-24.493.024-1.969.003-3.938.003-7.099h30.945v-31.493h-30.426v-32.047h30.383v-31.074h-30.344v-32.04h30.276v-31.094h-30.217v-32.066h30.17v-31.119h-30.129v-32.389h30.428v-31.092h-30.371v-32.059h30.327v-31.147h-30.271v-74.26l479.861 451.312c-.433.724-.864 1.451-1.296 2.176zM-1515.8 388.966h347.708v221.268c-28.03 0-55.309-.002-82.588 0-47.089.004-94.18.158-141.265-.221-4.644-.038-10.333-2.196-13.724-5.332-35.296-32.634-70.253-65.637-105.174-98.674-2.201-2.083-4.722-5.287-4.746-7.99-.315-36.146-.211-72.295-.211-109.051zm806.993-52.707c0 158.113.004 316.228-.004 474.339 0 17.733-3.393 21.046-21.486 21.046-142.299.004-284.598.043-426.898-.195-4.43-.006-9.982-1.67-13.11-4.594-63.764-59.606-127.254-119.509-190.782-179.37-1.389-1.309-2.591-2.814-5.646-6.165h229.899V357.81h-409.91v114.824c-11.432-10.671-20.968-19.441-30.292-28.433-1.229-1.187-1.935-3.496-1.94-5.289-.109-37.493-.083-74.987-.083-113.288 3.837-.198 7.008-.505 10.179-.505 174.911-.011 349.821-.068 524.731.307 6.189.013 15.93 2.784 17.748 6.984 3.02 6.972 3.395 15.948-3.869 23.547-12.789 13.387-13.41 26.646-5.033 43.548 1.381 2.79 1.369 7.737-.225 10.309-16.965 27.384 10.158 57.307 32.971 57.467 48.088.338 96.186.39 144.273-.026 23.217-.2 49.807-30.603 32.869-57.511-1.604-2.549-1.586-7.528-.197-10.322 8.41-16.921 7.803-29.87-5.102-43.496-7.227-7.63-6.801-16.601-3.781-23.553 1.826-4.204 11.543-6.851 17.775-6.963 35.508-.643 71.037-.312 107.912-.312l.001 11.161z"/><path d="M-1103.809 735.491h362.119v-29.754h-362.119v29.754zm.068-63.193h362.127v-29.88h-362.127v29.88zm.293-63.118h362.111v-29.812h-362.111v29.812zm-.306-63.425h362.111v-29.819h-362.111v29.819zm-442.437 79.68v189.399h201.284c-67.82-63.816-134.104-126.188-201.284-189.399zm31.129 71.933l91.922 86.415h-91.922v-86.415zm110.32-435.574c8.417-.115 15.586-7.532 15.381-15.916-.206-8.373-7.819-15.503-16.151-15.124-8.022.365-14.831 7.418-14.889 15.423-.061 8.394 7.296 15.731 15.659 15.617zm-62.707.002c8.014-.396 14.811-7.491 14.833-15.483.024-8.391-7.367-15.705-15.718-15.557-8.425.15-15.561 7.589-15.322 15.972.239 8.356 7.899 15.479 16.207 15.068zm-63.888.034c8.333-.031 15.684-7.551 15.497-15.856-.188-8.35-7.778-15.52-16.117-15.224-8.061.287-14.876 7.265-14.962 15.32-.088 8.381 7.237 15.791 15.582 15.76z"/></g><g fill-rule="evenodd" clip-rule="evenodd" fill="#FFF"><path d="M880.452-1173.841v-73.002H572.144v-43.373H396.582v44.058H88.535v73.007h42.769v411.87H88.487v73.231h228.738l-96.168 288.678c9.376 3.181 17.916 6.078 26.912 9.132 1.326-3.675 2.411-6.493 3.366-9.354 31.14-93.316 62.358-186.604 93.218-280.014 2.36-7.144 5.597-9.228 12.914-9.137 33.669.415 67.345.198 101.019.209h11.738v293.243h28.892v-292.832c3.729-.171 6.711-.424 9.694-.426 34.592-.021 69.186.228 103.772-.194 6.942-.085 9.433 2.511 11.436 8.571 25.18 76.312 50.576 152.551 75.957 228.794 6.724 20.197 13.595 40.343 20.616 61.164l27.064-9.224-96.396-289.426h229.145v-73.104h-42.788v-411.871h42.836zm-454.762-87.232h117.034v13.825H425.69v-13.825zm425.842 529.032v14.078H117.361v-14.078h734.171zm-690.13-30.345v-410.531h646.127v410.531H161.402zm-44.043-440.558v-14.079H851.53v14.079H117.359z"/><path d="M191.372-792.034h277.567v-160.182H191.372v160.182zm28.581-131.002h219.905v102.023H219.953v-102.023zM499.94-791.978h277.783v-159.964H499.94v159.964zm28.625-131.084h219.93v102.028h-219.93v-102.028zm-162.562-220.332H191.435v160.231h174.568v-160.231zm-28.723 131.37H220.227v-102.118H337.28v102.118zm234.422-131.12H396.78v159.945h174.922v-159.945zm-28.68 130.938H425.909v-101.943h117.113v101.943zm59.827 29.13h174.918v-159.878H602.849v159.878zm28.603-131.014h117.043v101.988H631.452v-101.988z"/></g></svg>