<svg version="1.1" id="Layer_1" xmlns="http://www.w3.org/2000/svg" x="0" y="0" viewBox="0 0 765.35 566.93" xml:space="preserve"><style>.st0{fill:#fff;stroke:#000;stroke-miterlimit:10}</style><path class="st0" d="M382.13 165.03l1.46-.4c-72.73 22.57-130.27 61.24-131.46 89.64-1.27 30.39 62.52 37.53 142.43 15.94 79.91-21.6 145.74-63.76 147-94.16.65-15.75-16.18-25.25-43.65-27.75 33.58 1.5 54.62 11.29 54.62 28.76 0 33.31-76.3 81.94-170.4 108.61-94.09 26.66-170.4 21.27-170.4-12.04.01-33.3 76.31-81.93 170.4-108.6"/><path class="st0" d="M248.7 340.16l236.22-226.77-21.41 178.26-39.06-44.72zm-93.61 75.72c0 9.58-6.89 18.83-18.83 18.83h-12.11v18.83h-10.76v-56.5h20.18c14.7 0 21.52 7.91 21.52 18.84zm-10.77 0c0-5.3-4.2-8.07-9.41-8.07h-10.76v16.14h10.76c5.22 0 9.41-3.37 9.41-8.07zm77.04 9.41c0 16.31-13.29 29.6-29.6 29.6-16.31 0-29.59-13.29-29.59-29.6 0-16.31 13.28-29.59 29.59-29.59 16.31 0 29.6 13.28 29.6 29.59zm-10.77 0c0-10.42-8.41-18.83-18.84-18.83-10.42 0-18.83 8.4-18.83 18.83 0 10.43 8.41 18.84 18.83 18.84 10.43 0 18.84-8.41 18.84-18.84zm62.48 13.04l4.12 9.75c-4.79 4.37-12.02 6.81-18.33 6.81-16.56 0-30.1-13.29-30.1-29.6 0-16.31 13.54-29.59 30.1-29.59 6.31 0 13.54 2.35 18.33 6.72l-4.12 9.75a19.998 19.998 0 00-14.04-5.71c-10.76 0-19.51 8.4-19.51 18.83 0 10.43 8.75 18.84 19.51 18.84 5.55 0 10.51-2.19 14.04-5.8zm63.78 15.21h-13.62l-21.36-24.72v24.72h-10.76v-56.5h10.76v23.38l20.01-23.38h13.62l-24.21 26.99 25.56 29.51zm61.43-28.25c0 16.31-13.28 29.6-29.59 29.6-16.31 0-29.6-13.29-29.6-29.6 0-16.31 13.28-29.59 29.6-29.59 16.31 0 29.59 13.28 29.59 29.59zm-10.76 0c0-10.42-8.41-18.83-18.83-18.83-10.43 0-18.83 8.4-18.83 18.83 0 10.43 8.41 18.84 18.83 18.84 10.43 0 18.83-8.41 18.83-18.84zm62.47 13.04l4.12 9.75c-4.79 4.37-12.02 6.81-18.33 6.81-16.57 0-30.1-13.29-30.1-29.6 0-16.31 13.54-29.59 30.1-29.59 6.31 0 13.53 2.35 18.33 6.72l-4.12 9.75a19.998 19.998 0 00-14.04-5.71c-10.76 0-19.51 8.4-19.51 18.83 0 10.43 8.75 18.84 19.51 18.84 5.55 0 10.52-2.19 14.04-5.8zm80.1 15.21h-11.44l-4.71-36.99-14.79 36.99h-5.38l-14.8-36.99-4.71 36.99h-11.44l8.07-56.5h10.76l14.79 36.32 14.8-36.32H522l8.09 56.5zm64.96-28.25c0 16.31-13.28 29.6-29.6 29.6-16.31 0-29.6-13.29-29.6-29.6 0-16.31 13.28-29.59 29.6-29.59s29.6 13.28 29.6 29.59zm-10.76 0c0-10.42-8.4-18.83-18.83-18.83-10.43 0-18.83 8.4-18.83 18.83 0 10.43 8.41 18.84 18.83 18.84 10.42 0 18.83-8.41 18.83-18.84zm62.47 13.04l4.12 9.75c-4.79 4.37-12.02 6.81-18.33 6.81-16.56 0-30.1-13.29-30.1-29.6 0-16.31 13.54-29.59 30.1-29.59 6.31 0 13.54 2.35 18.33 6.72l-4.12 9.75a19.998 19.998 0 00-14.04-5.71c-10.76 0-19.51 8.4-19.51 18.83 0 10.43 8.74 18.84 19.51 18.84 5.54 0 10.51-2.19 14.04-5.8z"/></svg>